<?xml version="1.0" standalone="no"?>
<!DOCTYPE svg PUBLIC "-//W3C//DTD SVG 20010904//EN"
 "http://www.w3.org/TR/2001/REC-SVG-20010904/DTD/svg10.dtd">
<svg version="1.0" xmlns="http://www.w3.org/2000/svg"
 width="1600.000000pt" height="1600.000000pt" viewBox="0 0 1600.000000 1600.000000"
 preserveAspectRatio="xMidYMid meet">
<metadata>
Created by potrace 1.11, written by Peter Selinger 2001-2013
</metadata>
<g transform="translate(0.000000,1600.000000) scale(0.100000,-0.100000)"
fill="#000000" stroke="none">
<path d="M7485 15819 c-1884 -117 -3646 -908 -4979 -2234 -1219 -1212 -1999
-2797 -2216 -4500 -69 -547 -78 -1189 -24 -1730 134 -1339 602 -2594 1379
-3701 l57 -82 -108 -183 c-117 -200 -220 -406 -253 -509 -80 -250 -80 -557 1
-809 56 -177 133 -304 324 -536 225 -273 271 -357 315 -573 25 -128 34 -152
53 -152 21 0 91 86 127 157 31 61 32 65 26 160 -9 162 -63 289 -257 599 -61
99 -138 233 -171 299 -125 254 -144 478 -53 657 40 79 61 104 147 170 43 33
82 69 86 79 3 11 40 48 80 84 l74 65 41 -48 c178 -204 513 -540 721 -722 1255
-1099 2809 -1756 4476 -1895 274 -23 706 -30 979 -16 959 49 1844 255 2728
635 46 20 85 36 87 36 1 0 22 -33 45 -72 141 -239 344 -506 532 -699 107 -109
255 -249 263 -249 3 0 12 14 21 32 29 57 15 105 -100 353 -154 328 -222 504
-281 725 -35 134 -36 132 40 172 l66 34 142 -23 c163 -26 462 -44 556 -33 35
5 79 6 96 3 53 -9 92 52 64 103 -23 43 -73 65 -212 90 -126 23 -287 62 -287
70 0 1 73 52 163 112 1217 812 2180 1956 2774 3292 333 751 546 1559 627 2385
52 525 45 1153 -19 1672 -212 1730 -988 3320 -2220 4547 l-156 155 37 73 c74
148 224 424 470 868 138 251 289 528 334 615 75 146 83 166 87 230 5 62 3 73
-18 99 -18 23 -24 26 -33 15 -6 -8 -51 -32 -101 -54 -49 -21 -461 -224 -915
-451 -454 -227 -868 -433 -921 -457 l-96 -44 -87 54 c-990 614 -2144 999
-3331 1113 -315 30 -865 39 -1180 19z m6621 -334 c-9 -20 -49 -89 -89 -153
-130 -206 -431 -710 -556 -932 -403 -713 -659 -1333 -752 -1820 -8 -41 -19
-70 -31 -78 -18 -13 -15 -38 3 -26 6 3 8 -4 4 -18 -2 -12 -9 -52 -15 -87 -5
-35 -17 -72 -26 -82 -9 -10 -16 -31 -16 -46 0 -33 -316 -633 -426 -808 -186
-299 -398 -570 -600 -769 l-80 -78 -83 21 c-211 51 -556 68 -596 29 -11 -12
-14 -21 -7 -28 6 -6 -31 -50 -106 -127 -275 -281 -665 -764 -831 -1029 -50
-81 -41 -74 -364 -252 -115 -63 -255 -144 -310 -180 -94 -62 -220 -176 -294
-267 -20 -24 -31 -32 -27 -20 10 38 45 300 61 455 27 278 35 523 40 1310 6
830 16 1172 41 1413 20 197 58 446 95 621 16 77 29 141 29 143 0 2 17 -4 37
-12 35 -15 39 -15 50 1 19 26 17 30 -27 48 -22 9 -40 21 -40 28 0 23 79 274
119 380 177 465 440 868 748 1146 l81 72 59 -58 c100 -100 348 -274 462 -324
25 -11 40 -22 34 -25 -19 -7 -15 -33 5 -33 55 0 857 353 1515 666 628 299
1632 832 1842 978 l60 42 3 -32 c2 -18 -4 -49 -12 -69z m-5925 -11 c64 -18
169 -76 494 -272 256 -155 503 -297 650 -373 l89 -47 -44 -12 c-241 -64 -477
-237 -670 -490 -199 -261 -357 -604 -486 -1054 -162 -564 -248 -1143 -315
-2110 -12 -176 -23 -322 -25 -324 -1 -2 -16 11 -33 29 -23 23 -38 30 -53 25
-12 -3 -61 1 -108 9 -205 35 -2722 299 -3190 335 -148 12 -220 22 -277 41 -77
25 -86 131 -13 154 109 34 725 299 1175 506 160 73 504 240 765 371 871 435
1470 767 1470 813 0 8 -4 15 -8 15 -4 0 7 46 26 103 106 324 160 657 232 1442
16 182 42 442 57 578 l27 249 31 13 c42 18 141 18 206 -1z m1763 -834 c111
-56 216 -153 261 -241 l15 -27 -36 10 c-41 11 -49 7 -164 -86 -376 -303 -688
-780 -874 -1339 -31 -92 -56 -174 -56 -182 0 -12 -14 -15 -67 -15 -220 -1
-414 -108 -531 -294 -29 -45 -79 -173 -71 -180 2 -2 16 -6 31 -10 25 -6 27 -3
42 46 33 112 109 212 214 281 84 56 166 84 272 93 l83 7 -5 -29 c-3 -16 -21
-105 -41 -199 -98 -470 -128 -871 -128 -1715 0 -668 -14 -1272 -34 -1508 -29
-330 -53 -490 -145 -957 -104 -531 -126 -726 -117 -1065 6 -215 33 -479 77
-733 21 -123 34 -162 51 -151 12 7 11 8 -21 394 -29 347 -33 450 -21 649 16
254 34 386 93 676 28 138 56 274 61 304 l11 54 185 122 c421 277 771 468 1353
739 596 277 818 423 1123 738 355 365 771 935 1057 1448 152 273 311 604 420
875 33 83 61 151 63 153 1 2 33 -4 71 -13 205 -47 285 -135 314 -343 23 -170
-23 -411 -155 -805 -238 -713 -714 -1410 -1394 -2040 -348 -323 -596 -523
-1111 -892 -417 -299 -556 -405 -760 -580 -603 -516 -950 -1135 -950 -1697 0
-76 3 -98 13 -98 10 0 18 27 26 88 11 80 19 100 93 237 216 398 340 538 694
778 315 214 629 382 939 502 104 40 118 43 245 49 541 27 918 186 1335 562
216 195 420 439 795 954 497 681 777 1016 1333 1592 165 171 232 234 270 253
62 30 77 31 110 5 55 -44 56 -176 1 -287 -27 -56 -62 -75 -50 -28 11 43 -18
29 -79 -37 -96 -103 -560 -660 -659 -790 -195 -256 -321 -468 -508 -848 -309
-631 -364 -734 -499 -937 -347 -523 -835 -866 -1424 -1002 -125 -29 -189 -38
-528 -76 -371 -41 -489 -62 -652 -117 -228 -76 -424 -188 -640 -365 -120 -99
-308 -285 -406 -403 -94 -113 -288 -416 -360 -562 -18 -38 -40 -68 -48 -68
-19 0 -11 -110 24 -325 44 -274 57 -432 52 -630 -6 -203 -24 -297 -81 -418
-43 -94 -72 -128 -188 -226 -265 -223 -417 -427 -756 -1017 -207 -361 -247
-427 -332 -554 -245 -364 -537 -623 -904 -804 -262 -129 -515 -199 -823 -227
-121 -11 -124 -10 -205 17 -511 168 -888 433 -1130 793 -228 340 -338 746
-308 1134 24 320 87 544 316 1130 206 528 284 778 319 1032 18 127 16 318 -4
384 -10 34 -9 36 67 115 140 147 203 270 222 435 12 105 -1 249 -30 342 -10
33 -14 59 -10 59 4 0 42 -38 85 -85 42 -47 81 -85 86 -85 18 0 8 38 -20 77
-218 301 -546 462 -1028 504 -192 16 -689 7 -813 -16 -271 -50 -449 -137 -627
-308 -301 -289 -504 -695 -585 -1167 -30 -171 -29 -496 0 -800 39 -397 43
-454 44 -655 0 -348 -55 -592 -193 -840 -65 -118 -108 -175 -259 -339 -94
-103 -139 -145 -183 -168 -162 -87 -266 -302 -254 -523 12 -215 95 -413 307
-730 132 -197 227 -378 249 -476 18 -77 12 -129 -24 -204 l-33 -70 -2 55 c-2
127 -46 282 -112 400 -17 30 -92 138 -168 240 -75 102 -153 210 -172 240 -127
200 -188 411 -188 655 0 268 60 459 261 825 186 339 239 479 259 684 5 50 14
114 19 141 5 28 15 142 21 255 10 185 14 212 39 280 51 133 56 171 56 380 0
107 -4 292 -9 410 -7 177 -5 236 8 335 80 603 420 1115 904 1364 183 93 322
132 731 201 135 23 286 52 337 65 247 63 462 183 593 333 l49 56 194 -38 193
-37 67 -83 c100 -123 238 -266 342 -353 185 -156 814 -543 882 -543 45 0 -14
47 -241 189 -371 232 -555 371 -731 552 -73 75 -101 112 -137 185 -135 269
-443 754 -584 919 -129 152 -289 258 -463 306 -75 21 -106 23 -255 23 -199 -1
-302 -19 -629 -109 -382 -105 -542 -131 -740 -122 -147 7 -223 25 -342 82
-240 115 -427 403 -503 777 -19 95 -19 99 -1 181 44 200 144 421 288 637 115
171 203 283 471 599 119 139 248 296 288 350 140 186 282 448 366 673 58 155
152 554 176 745 13 105 39 195 54 190 25 -8 38 -62 54 -234 14 -151 15 -201 5
-333 -21 -270 -81 -503 -187 -728 -111 -233 -229 -398 -539 -752 -394 -451
-553 -765 -573 -1130 -7 -130 15 -263 57 -357 17 -37 28 -73 25 -82 -5 -18 82
-114 96 -105 5 3 38 -11 73 -31 81 -45 180 -66 311 -66 197 1 320 39 685 217
285 138 391 179 557 216 84 19 129 22 308 22 195 0 218 -2 329 -28 253 -59
455 -158 653 -318 94 -77 205 -207 355 -418 203 -285 334 -404 663 -600 264
-157 372 -237 495 -364 165 -170 306 -429 359 -657 11 -46 29 -167 40 -268 11
-101 23 -186 26 -189 33 -33 46 213 21 386 -39 266 -134 493 -296 707 -123
163 -261 281 -503 429 l-125 77 -22 80 c-69 256 -103 521 -104 799 0 425 58
682 259 1135 114 258 155 363 181 462 l18 73 51 -6 c27 -3 145 -13 262 -22
l211 -17 -58 -105 c-245 -437 -324 -1009 -209 -1503 65 -278 205 -558 388
-775 52 -61 60 -76 55 -99 -6 -24 -5 -25 19 -19 23 5 32 -2 90 -76 132 -170
190 -290 228 -468 27 -131 29 -397 6 -628 -16 -153 -15 -186 7 -179 28 9 76
243 98 474 14 153 -1 343 -38 471 -25 88 -88 231 -123 281 l-20 27 36 45 c187
232 316 548 382 934 27 160 45 321 81 735 64 729 149 1413 260 2110 124 774
209 1088 404 1495 204 425 460 768 701 941 122 87 351 182 440 183 17 1 57
-13 89 -29z m3881 -3238 c274 -208 492 -365 620 -445 l77 -49 -243 -246 c-134
-136 -248 -253 -255 -261 -10 -11 -22 -11 -65 -2 -153 33 -502 63 -764 65
l-200 1 59 105 c178 318 315 679 410 1083 l7 28 47 -40 c26 -23 164 -130 307
-239z m1111 -863 c35 -36 66 -78 70 -93 7 -28 -11 -106 -24 -106 -4 0 -27 8
-52 16 -29 11 -94 18 -186 22 l-141 5 111 147 111 148 24 -37 c13 -20 52 -66
87 -102z m-4038 -4054 c37 -31 116 -105 176 -163 462 -453 576 -881 501 -1877
-20 -265 -28 -343 -95 -915 -93 -790 -94 -810 -95 -1270 0 -333 3 -431 18
-550 65 -521 180 -861 467 -1383 70 -127 106 -217 87 -217 -9 0 -371 423 -423
495 -307 422 -525 881 -626 1320 -51 220 -69 371 -75 610 -6 239 6 404 52 740
72 524 87 684 87 930 0 369 -58 660 -181 917 -115 240 -311 443 -530 550 -36
18 -132 83 -212 143 -227 171 -355 233 -489 237 -38 1 -70 6 -70 10 0 14 305
315 380 375 l75 60 165 17 c259 28 382 35 558 31 l162 -3 68 -57z m-995 -780
c157 -27 312 -95 450 -197 74 -55 102 -99 156 -246 107 -290 136 -622 107
-1209 -19 -375 -20 -557 -6 -796 23 -385 56 -680 85 -757 8 -19 19 -89 25
-155 21 -219 69 -454 134 -658 l24 -77 -130 123 c-186 175 -367 427 -389 540
-21 117 -30 422 -24 842 8 462 1 695 -35 1230 -23 329 -40 474 -74 625 -57
253 -185 493 -358 676 -39 41 -66 74 -61 74 6 0 49 -7 96 -15z m-7843 -2598
c0 -2 -10 -12 -22 -23 l-23 -19 19 23 c18 21 26 27 26 19z m-100 -110 c0 -2
-15 -16 -32 -33 l-33 -29 29 33 c28 30 36 37 36 29z m9779 -1392 c100 -66 169
-101 281 -141 59 -20 62 -23 30 -23 -19 0 -107 8 -194 19 -88 11 -194 20 -237
20 l-77 0 -5 33 c-6 32 -24 190 -30 258 l-3 37 70 -70 c38 -38 112 -98 165
-133z m174 -172 c-7 -2 -19 -2 -25 0 -7 3 -2 5 12 5 14 0 19 -2 13 -5z m80
-10 c-7 -2 -19 -2 -25 0 -7 3 -2 5 12 5 14 0 19 -2 13 -5z m486 -34 c17 -6 31
-15 31 -20 0 -6 -8 -5 -19 1 -11 5 -37 14 -58 19 -30 7 -33 9 -12 10 14 1 40
-4 58 -10z"/>
<path d="M10195 13406 c-170 -43 -317 -193 -375 -381 -24 -78 -39 -206 -23
-190 6 6 27 57 47 115 48 136 79 191 147 265 70 74 143 119 231 142 59 15 77
16 168 4 56 -7 104 -10 107 -7 9 9 -49 39 -100 53 -62 16 -135 16 -202 -1z"/>
<path d="M10734 12138 c5 -21 -25 -38 -372 -210 -207 -103 -489 -246 -626
-318 -137 -71 -252 -127 -256 -125 -5 3 -11 -2 -14 -11 -9 -22 -8 -25 7 -22 8
2 39 -27 70 -64 76 -89 204 -190 302 -239 214 -106 446 -86 658 54 142 95 236
217 294 382 25 73 28 93 28 220 0 145 -1 151 -57 303 -19 52 -43 73 -34 30z
m32 -109 c38 -143 27 -316 -30 -455 l-31 -77 -90 2 c-110 2 -178 -11 -272 -54
-125 -57 -245 -166 -291 -262 -18 -38 -27 -39 -103 -17 -110 32 -299 154 -398
258 l-34 35 26 10 c23 9 35 5 77 -21 l50 -31 147 6 c119 4 165 10 238 31 124
37 255 101 352 175 150 113 213 207 213 318 l0 63 62 39 c35 22 64 38 66 36 2
-1 10 -27 18 -56z m-181 -81 c-16 -93 -91 -188 -218 -276 -154 -106 -314 -169
-499 -196 -142 -21 -210 -21 -238 2 -22 18 -21 18 87 66 195 87 505 244 683
345 96 55 179 100 183 100 5 1 6 -18 2 -41z"/>
<path d="M7670 6360 c-66 -14 -145 -56 -180 -97 -50 -57 -28 -62 95 -24 119
38 161 37 251 -4 106 -47 200 -166 268 -335 51 -127 75 -233 86 -384 10 -129
21 -170 43 -163 29 9 41 81 41 242 1 174 -10 231 -66 375 -109 278 -324 434
-538 390z"/>
<path d="M5925 5857 c-43 -43 -70 -130 -61 -201 8 -71 57 -165 112 -216 61
-56 171 -107 263 -121 85 -13 176 -8 194 10 24 24 -9 46 -123 79 -137 40 -178
60 -243 120 -91 85 -117 181 -77 283 12 29 19 58 16 66 -9 23 -47 14 -81 -20z"/>
<path d="M8241 4736 c-26 -31 27 -145 100 -218 73 -73 161 -111 269 -116 74
-4 88 -2 110 16 22 18 23 22 10 35 -8 8 -51 26 -95 41 -115 40 -177 78 -276
173 -49 45 -92 83 -97 83 -5 0 -15 -6 -21 -14z"/>
</g>
</svg>
